<svg id="Layer_1" data-name="Layer 1" xmlns="http://www.w3.org/2000/svg" viewBox="0 0 119.33 119.33"><defs><style>.cls-1{fill:#1d1d1b;}.cls-2{fill:none;}</style></defs><path class="cls-1" d="M238,278H229.7a19.8,19.8,0,0,0,7.68,9.21v5.57c-4.42-2-8.31-5.13-10.37-8.78-1.58,3.07-4.42,5.13-6.86,6.62a34.17,34.17,0,0,1-4.52,2.16v-5.66A16.61,16.61,0,0,0,224,278h-8.93v-5.57H238Zm6.33,18.77c3,0,5.62,1.92,5.62,4.89V306a4.83,4.83,0,0,1-5.09,4.66H226.1a5.2,5.2,0,0,1-5.19-5V302.2c0-3.55,3.08-5.42,6.58-5.42ZM229,301.72c-1.88,0-2,.77-2.07,1.39l-.05,1.44c0,1.4,1.3,1.44,2.6,1.44h12.77c1.1,0,2.06-.48,2.06-1.39v-1.25c0-.91-.48-1.63-1.87-1.63Zm20.88-31.44v24.05h-6.1v-8.79h-5.57v-5.66h5.57v-9.6Z" transform="translate(-193.03 -255.62)"/><path class="cls-1" d="M290.32,306.23H255.18v-5.81h35.14Zm-3.74-33.17v5.38a51.82,51.82,0,0,1-1.82,14.26,30.06,30.06,0,0,1-1.78,4.75h-7c4.22-7.06,3.84-15.7,3.6-19H258.5v-5.43Z" transform="translate(-193.03 -255.62)"/><path class="cls-1" d="M236.28,322.33v16.32H221.64v6.72h14.64v5.09H215.49V333h15.17v-5H214.92v-5.66Zm11.86,38h-6.29V319.88h6.29Z" transform="translate(-193.03 -255.62)"/><path class="cls-1" d="M290.46,337.74v4.64H254.65v-4.64Z" transform="translate(-193.03 -255.62)"/><rect class="cls-2" width="119.33" height="119.33"/></svg>