<svg id="Layer_1" data-name="Layer 1" xmlns="http://www.w3.org/2000/svg" viewBox="0 0 296 132.48"><defs><style>.cls-1{fill:#1d1d1b;}.cls-2{fill:none;}</style></defs><path class="cls-1" d="M191.5,354H174.8l-2.26,9.48h-11l15.9-62.06h11.88l15.32,62.06H193.69ZM177,344.79h12.4l-5.77-25.38H183Z" transform="translate(-118.04 -266.18)"/><path class="cls-1" d="M231.69,317.08c10.57,0,17.14,6.63,17.14,16.91v12.48c0,10.28-6.57,17-17.14,17H228c-10.58,0-17.07-6.71-17.07-17V301.4h10.72v16.84a21.92,21.92,0,0,1,7.15-1.16ZM228,327.5c-3.8,0-6.27,2.7-6.35,6.49v12.18c0,3.94,2.48,6.79,6.35,6.79h3.72a6.42,6.42,0,0,0,6.56-6.79V334.29a6.42,6.42,0,0,0-6.56-6.79Z" transform="translate(-118.04 -266.18)"/><path class="cls-1" d="M275.45,317.08c10.64,0,17.13,6.63,17.13,16.91v12.48c0,10.28-6.49,17-17.13,17h-3.72c-10.58,0-17.07-6.71-17.07-17V334c0-10.28,6.49-16.91,17.07-16.91Zm-3.72,10.42a6.58,6.58,0,0,0-6.71,6.79v11.88a6.58,6.58,0,0,0,6.71,6.79h3.72a6.53,6.53,0,0,0,6.7-6.79V334.29a6.53,6.53,0,0,0-6.7-6.79Z" transform="translate(-118.04 -266.18)"/><path class="cls-1" d="M319.42,353c6,0,7.44-3,7.59-6.93v-29h10.65v46.38H327v-1.17a20.08,20.08,0,0,1-6.78,1.17h-4.67c-10.87,0-16.27-8-16.27-15.9V317.08h10.58v28.36c0,4.31,1.09,7.59,7.51,7.59Z" transform="translate(-118.04 -266.18)"/><path class="cls-1" d="M342.62,317.08h8.6V301.4h10.72v15.68h8.61V327.5h-8.61v36H351.22v-36h-8.6Z" transform="translate(-118.04 -266.18)"/><rect class="cls-2" width="296" height="132.48"/></svg>