<svg id="Layer_1" data-name="Layer 1" xmlns="http://www.w3.org/2000/svg" viewBox="0 0 350 350"><defs><style>.cls-1{fill:#ff6b6b;}.cls-2{fill:none;}</style></defs><path class="cls-1" d="M95.83,46.34a232.88,232.88,0,0,0-15.14,50.9A236,236,0,0,0,77.55,124c-.51,8.81-.61,17.7,1,26.42,1.29,7,3.77,16.14,10.57,19.87,7.64,4.19,15.77-1.31,20.17-7.55,4.22-6,5.86-13.45,6.87-20.58,1.28-9,2.15-18.14,2.94-27.22q2.48-28.31,2.59-56.74v-7c0-1.47-1.62-3-3.17-2.41-14.36,5.78-19.07,22.06-21.49,36a192.79,192.79,0,0,0-1.23,58.29c1.27,9.58,3.12,19.59,9.1,27.48a2.57,2.57,0,0,0,3.54.81,2.88,2.88,0,0,0,.39-.3c7.6-6,10.36-15.86,12.29-24.9a308.59,308.59,0,0,0,5.38-35.14,300.13,300.13,0,0,0,1.28-35.35c-.1-4.62-.09-9.49-2.21-13.72A9.55,9.55,0,0,0,114,57.12c-4.69,1.45-8.72,5.2-11.88,8.83A48.52,48.52,0,0,0,94.46,78a62.47,62.47,0,0,0-4.9,30,94.29,94.29,0,0,0,2.91,17q1.11,4.2,2.51,8.33a41.11,41.11,0,0,0,2.9,7.5c3,5.07,9.7,3.82,12.38-.85,1.34-2.35,1.67-5.05,2.06-7.68q.66-4.47,1.24-8.94a475.29,475.29,0,0,0,3.86-71.64q-.11-4.42-.28-8.85c-.08-1.93-2.84-3.6-4.27-1.77A108.84,108.84,0,0,0,92.56,129a100,100,0,0,0,4.18,14.72c1.6,4.34,3.69,11.13,9.23,11.59,3,.25,5.1-1.85,6.63-4.14a41.8,41.8,0,0,0,3.9-7.62A74.88,74.88,0,0,0,120.73,127a234.24,234.24,0,0,0,2.91-38.51c0-5,.4-10.93-2.2-15.43a8.6,8.6,0,0,0-6-4.27A12.06,12.06,0,0,0,107.07,71C98.07,76.83,92.5,87,89,96.84a89.06,89.06,0,0,0-5.56,29.42c0,9.34,1.85,19.17,7.41,26.88a34.31,34.31,0,0,0,4.73,5.34,2.5,2.5,0,0,0,3.53,0c7.31-8.84,10.66-19.91,13.42-30.85A275.13,275.13,0,0,0,119.1,91q1.19-10.5,1.55-21.09a2.52,2.52,0,0,0-2.59-2.46,2.49,2.49,0,0,0-1.68.69C98.78,85.52,93.64,111.41,95,135.36c.18,3,.46,6.08.84,9.11a51.66,51.66,0,0,0,1.5,8.91c.85,2.77,2.57,5.6,5.61,6.26,3.76.81,6.62-1.95,8.65-4.72,4-5.51,6.37-12.13,8-18.72,1.72-7.17,2.78-14.52,3.8-21.82,2.45-17.54,3.89-35.2,5.3-52.85.17-2.11-2.2-2.82-3.76-2.16-5.7,2.42-10.12,6.95-13.62,11.94A76.74,76.74,0,0,0,102.7,88,90.16,90.16,0,0,0,97,126.4a80.61,80.61,0,0,0,3.45,19c.92,2.85,2.51,5.73,5.6,6.59,2.81.79,5.59-.57,7.41-2.69a22.31,22.31,0,0,0,4-8q1.68-5.17,3.1-10.44c1.87-6.93,3.38-14,4.55-21a220.51,220.51,0,0,0,2.62-24.19c.39-7.5.28-15.24-3.29-22a2.56,2.56,0,0,0-3.42-.9,57.42,57.42,0,0,0-25.65,21.9,56.3,56.3,0,0,0-8.54,34.85,58.17,58.17,0,0,0,5.77,20.87,2.57,2.57,0,0,0,3.42.9c7.1-3.15,9.27-11.63,11-18.48a237.06,237.06,0,0,0,5.2-28.47q1-8,1.4-16.14c.14-2.67-3.35-3.13-4.66-1.26a131.28,131.28,0,0,0-23.68,70.34,2.54,2.54,0,0,0,1.83,2.41c3.95,1.37,7.37-1.43,9.48-4.51A27.71,27.71,0,0,0,99.18,140q1.26-3,2.39-6.1a158.92,158.92,0,0,0,7-25.71,2.5,2.5,0,1,0-4.82-1.33c-3.82,11.51-7.58,23.2-8,35.43-.08,2.61,3.35,3.21,4.66,1.26a110.55,110.55,0,0,0,18.23-51.89A105.91,105.91,0,0,0,118.83,76a2.52,2.52,0,0,0-2.59-2.46,2.49,2.49,0,0,0-1.68.69,78.21,78.21,0,0,0-24.36,52.3,75.08,75.08,0,0,0,.92,16.67,2.46,2.46,0,0,0,1.74,1.75l4.92,1.25A2.61,2.61,0,0,0,100.6,145a91.75,91.75,0,0,0,17.88-46,88.53,88.53,0,0,0,.28-14.1,2.53,2.53,0,0,0-2.58-2.48,2.57,2.57,0,0,0-1.18.32,72.57,72.57,0,0,0-33.11,41.36,70.26,70.26,0,0,0-2.88,15,2.52,2.52,0,0,0,2.52,2.5,2.74,2.74,0,0,0,.64-.09l3.77-1.37a2.5,2.5,0,1,0-1.33-4.82l-3.77,1.37L84,139.09a67.42,67.42,0,0,1,22-43.8A63.48,63.48,0,0,1,117.53,87l-3.76-2.16a86.64,86.64,0,0,1-17.49,57.67l2.83-1.14-4.92-1.26,1.75,1.75c-3-18.11,1.66-37.16,12-52.27a68.94,68.94,0,0,1,10.18-11.79L113.8,76a105.35,105.35,0,0,1-10.09,51.8A107.17,107.17,0,0,1,96.15,141l4.66,1.26c.37-11.76,4.11-23,7.78-34.1l-4.82-1.33a157.64,157.64,0,0,1-6.13,23,96.79,96.79,0,0,1-4.1,10.53,11.88,11.88,0,0,1-2.53,3.7,2.3,2.3,0,0,1-2.58.76l1.84,2.41a126.16,126.16,0,0,1,14.62-54.2,129.21,129.21,0,0,1,8.38-13.62l-4.63-1.26a230.29,230.29,0,0,1-3,26.72q-1.16,6.67-2.68,13.27a85.11,85.11,0,0,1-3.11,11.22c-1.24,3.2-3.13,6.13-6.35,7.56l3.42.9a52,52,0,0,1,23.88-69.55c.89-.44,1.8-.85,2.72-1.24l-3.42-.9c2.74,5.24,2.91,11.32,2.71,17.1-.23,6.5-.81,13-1.68,19.44a210.28,210.28,0,0,1-9,38.68c-.65,1.94-1.62,4.24-3.32,5.44a1.5,1.5,0,0,1-1.81.27,4,4,0,0,1-1.44-2,44.38,44.38,0,0,1-2.18-8.25,79.77,79.77,0,0,1-1.28-8.57,86.62,86.62,0,0,1,3.9-34.95,77.31,77.31,0,0,1,8.29-17.71c3.25-5.07,7.41-9.56,13-11.95l-3.7-2.16c-1.18,14.74-2.36,29.49-4.16,44.17-.88,7.18-1.92,14.34-3.19,21.46-1.09,6.15-2.38,12.42-5,18.15a31.2,31.2,0,0,1-4.66,7.83c-.55.62-1.48,1.69-2.41,1.68s-1.31-.83-1.7-1.65c-1.08-2.25-1.24-5-1.58-7.48q-.57-4.2-.87-8.42a108.44,108.44,0,0,1,2.46-33.74c2.94-12,8.54-23.18,17.35-31.89l-4.29-1.73a269.33,269.33,0,0,1-3.6,35.62c-2,11.41-4.36,23-8.24,34a50.45,50.45,0,0,1-8.26,15.39h3.53c-13.15-12-12.08-32.39-7.94-48.18,2.39-9.1,5.85-18.39,12.09-25.6a35.41,35.41,0,0,1,5.24-5c1.62-1.24,3.79-2.66,5.94-2.44,3.71.4,4,5.83,4.08,8.7A229.59,229.59,0,0,1,117,118.09c-1.25,10.37-2.75,21.62-8.68,30.51-.92,1.4-1.76,2.27-3.06,1-1.46-1.38-2.17-3.47-2.9-5.3a99,99,0,0,1-4.27-13.68,104.22,104.22,0,0,1,14.43-80.54c1.24-1.87,2.55-3.7,3.93-5.47l-4.27-1.77a477.13,477.13,0,0,1-2,66.56q-.83,8.23-1.94,16.43c-.37,2.66-.7,5.34-1.18,8-.31,1.73-.71,3.93-2.32,4.94s-2.29.2-2.92-1.22a70.43,70.43,0,0,1-2.6-7.35,108.52,108.52,0,0,1-3.84-15.49c-2.94-17.69.5-37.89,15-49.85,2.57-2.12,6.94-4.88,9.73-2.07,2.23,2.25,2.48,6.35,2.59,9.5a301.85,301.85,0,0,1-.69,32.95,297.17,297.17,0,0,1-4.2,32.28c-1.62,8.66-3,18.33-8.26,25.7a21,21,0,0,1-4.22,4.35l3.93.51c-4.89-6.46-6.81-14.38-8-22.25a182.3,182.3,0,0,1-2.08-27.31A186.94,186.94,0,0,1,101.08,91c1.1-7.44,2.45-15,5.31-22,2.6-6.34,6.88-12.63,13.46-15.28l-3.16-2.41q.14,26.92-1.8,53.8-1,13.49-2.48,26.93c-.81,7.24-1.49,14.66-4,21.55a25.64,25.64,0,0,1-4.66,8.21c-2.16,2.45-5.16,4.88-8.57,5-6.93.27-9.66-8.55-11-13.87-2.05-8.06-2.18-16.45-1.85-24.72a222.83,222.83,0,0,1,2.4-25A230.22,230.22,0,0,1,97.85,54.52c.74-1.89,1.5-3.78,2.29-5.65a2.59,2.59,0,0,0-.89-3.42,2.53,2.53,0,0,0-3.42.9Z" transform="translate(0 0)"/><path class="cls-1" d="M228.39,60.88a173.91,173.91,0,0,0-9.52,37.64,177.44,177.44,0,0,0-1.64,19.67,87.53,87.53,0,0,0,1.17,19.06c.92,4.74,2.69,12.35,8.45,13.29,3.2.52,5.58-1.6,7.56-3.83a45.92,45.92,0,0,0,5.09-7.07,78.14,78.14,0,0,0,6.69-16A177.92,177.92,0,0,0,251,104.9a184.84,184.84,0,0,0,3.37-44.1c-.06-1.44-1.58-3.08-3.16-2.41-9.54,4-15.23,12.67-19.09,21.9A143.34,143.34,0,0,0,223,114.52a163.9,163.9,0,0,0-1.35,36.9c.35,4.44,1.37,9.59,5.24,12.35,5,3.54,10.48-.61,13.46-4.68,3.25-4.44,4.74-10,6.21-15.2q2.58-9.12,4.44-18.41a248.18,248.18,0,0,0,4.65-37.74c.13-3,.24-6,.22-9s-.46-5.87-2.37-8.21c-3-3.71-8.36-3.91-12.63-2.7-4.93,1.39-9.28,4.77-12.84,8.35a58.58,58.58,0,0,0-9.5,13,75.28,75.28,0,0,0-8.3,48.42C211,142.46,212,148,215,152.05a11.78,11.78,0,0,0,5.84,4.44,2.51,2.51,0,0,0,2.44-.65c4.47-4.3,7.06-10,9-15.83,2.15-6.48,3.86-13.13,5.48-19.76a363.36,363.36,0,0,0,7.71-42.44,78,78,0,0,0,1-10,7.63,7.63,0,0,0-.9-3.77c-.8-1.35-2.56-2.58-4.21-2.12-1.37.37-2.81,1.85-3.83,2.8a25.53,25.53,0,0,0-2.87,3.1,41.18,41.18,0,0,0-4.83,7.86A114.4,114.4,0,0,0,223.32,94a166,166,0,0,0-4.43,20.81A169.94,169.94,0,0,0,217,138.52c0,6.8.45,14.2,4.68,19.84.61.8,1.75,1.59,2.83,1.14,8.61-3.56,11.6-13.25,14.31-21.37a170.76,170.76,0,0,0,7.1-30.34c.73-5.18,1.25-10.38,1.52-15.6A109.86,109.86,0,0,0,247.51,77c-.22-2.4-.88-4.8-2.79-6.41a8.78,8.78,0,0,0-6-2c-4.76.21-8.37,3.67-11.32,7.07-11.47,13.17-15.82,30.79-16.2,47.92a121.08,121.08,0,0,0,.43,13.06c.35,4,.73,8.11,2.51,11.79,1.87,3.87,5.71,6.43,10.09,5.78s8-4.36,10.24-8c5.28-8.59,7.43-18.86,9.55-28.58q3.48-16,5.61-32.22c.35-2.67.69-5.33,1-8a2.5,2.5,0,0,0-1.24-2.16c-6-4-12.71,1.68-16.68,5.89A68.59,68.59,0,0,0,221.83,96.7a110.19,110.19,0,0,0-11,36.85c-.75,6.25-.74,12.89,1.44,18.88,2,5.54,7,13.41,13.85,9.52a15.36,15.36,0,0,0,5.66-6.57c1.65-3.22,3.11-6.55,4.53-9.88A200.41,200.41,0,0,0,252.2,77.76a2.53,2.53,0,0,0-2.57-2.49,2.47,2.47,0,0,0-.6.08c-6.18,1.15-9.87,6.94-12.78,12a117.86,117.86,0,0,0-15.66,57.88,80.47,80.47,0,0,0,.39,9.82c.36,3.24,1.78,6.22,5.18,7.14,5.63,1.53,11.18-2.69,14.23-7s4.66-9.92,5.84-15.16q2.47-10.93,4.34-22A426.83,426.83,0,0,0,256.05,68a2.52,2.52,0,0,0-2.57-2.48,2.42,2.42,0,0,0-1.2.32c-21.38,14.81-35.23,40.1-35.43,66.22-.06,7.94,1.35,16.14,5.74,22.91a2.63,2.63,0,0,0,2.82,1.15c7.2-1.15,9.18-9.86,10.73-15.72q3.3-12.52,5.63-25.3,1.32-7.27,2.31-14.59c.2-1.48-.6-3.29-2.41-3.17a24.46,24.46,0,0,0-12.56,4.38,2.57,2.57,0,0,0-.9,3.42,2.52,2.52,0,0,0,3.42.89,19.67,19.67,0,0,1,10-3.69l-2.41-3.16q-1.65,12.12-4.19,24.1-1.28,6-2.79,12a93,93,0,0,1-2.91,10.39c-1,2.6-2.49,5.14-5.29,5.59l2.83,1.14c-3.62-5.57-4.92-12.13-5.05-18.69a70.41,70.41,0,0,1,2-18,78.34,78.34,0,0,1,16.09-32,75.6,75.6,0,0,1,14.82-13.59L251,67.93a407.34,407.34,0,0,1-4.07,41q-1.56,10.36-3.64,20.64c-1.14,5.66-2.15,11.47-4.14,16.91-1.48,4.08-3.87,8.43-8,10.27-1.45.65-4.12,1.38-4.91-.57a10.23,10.23,0,0,1-.44-3.16c-.1-1.6-.17-3.19-.2-4.79a112.81,112.81,0,0,1,5.23-36.3,110.68,110.68,0,0,1,8-19.07,58.81,58.81,0,0,1,4.95-8.15,11.19,11.19,0,0,1,6.54-4.58l-3.16-2.41A195.22,195.22,0,0,1,241,116.3a181.49,181.49,0,0,1-13.6,36.52c-.94,1.82-2.36,4.38-4.44,5s-3.65-2.24-4.55-3.83c-2.74-4.85-3.28-10.56-3-16a89,89,0,0,1,2.8-17,106.73,106.73,0,0,1,5.31-16.37A69.93,69.93,0,0,1,233,88.23a44.52,44.52,0,0,1,6.73-7.06c1.89-1.49,4.75-3.21,7-1.68l-1.24-2.15q-1.65,14.73-4.44,29.31c-1.78,9.27-3.57,18.74-6.7,27.65-1.38,3.91-3.06,8.19-5.77,11.38-1.92,2.26-5.14,4.9-8.09,3-2.34-1.54-3.13-5.21-3.54-7.94a92.44,92.44,0,0,1-.84-11.27c-.43-15.23,2-31.15,10.23-44.22a46.89,46.89,0,0,1,7.21-8.92c1.84-1.73,5.82-4.3,8.08-1.72,1.16,1.33.89,3.79.92,5.4,0,2.35,0,4.69,0,7q-.15,7.15-.9,14.28a166.54,166.54,0,0,1-5.32,27.64q-1.92,6.88-4.43,13.6c-1.23,3.27-2.66,6.71-5,9.32a10.8,10.8,0,0,1-3.75,2.81l2.82,1.15c-3.47-4.62-4-10.43-4-16a159.82,159.82,0,0,1,1.19-20.16,153.15,153.15,0,0,1,9.56-38.44c2.24-5.6,5.37-11.29,10.47-14.76l-1.93.25c.81.17-.27-.28-.18-.29s.12.39.11.17c0,.48.17.68.18,1.19A38.25,38.25,0,0,1,241,72c-.34,3.18-.71,6.36-1.13,9.54q-1.26,9.42-3,18.77a324.41,324.41,0,0,1-9,36.75c-1.73,5.53-3.94,11.07-8.19,15.17l2.43-.65c-3.67-1.23-5-5.92-5.84-9.25a67.44,67.44,0,0,1-2-14.62,71.25,71.25,0,0,1,5.31-29.34c3.56-8.64,9-17.45,16.86-22.85,3-2.07,6.92-4,10.5-3.31a4.22,4.22,0,0,1,3.41,2.6c.91,2.21.52,5,.47,7.35a237.32,237.32,0,0,1-3.19,34.38,199.42,199.42,0,0,1-7.9,32.76,28.38,28.38,0,0,1-3,6.23c-1.11,1.71-2.7,3.71-4.71,4.35a2.51,2.51,0,0,1-1.92-.08,3.9,3.9,0,0,1-1.31-1.18,12.18,12.18,0,0,1-1.85-5,57.11,57.11,0,0,1-.58-7.15c-.13-2.82-.19-5.63-.18-8.45a163.84,163.84,0,0,1,1-16.86,158.18,158.18,0,0,1,7.22-32.74c2.71-8.12,6.32-16.71,13.14-22.25a20.82,20.82,0,0,1,5-3l-3.17-2.41a179.42,179.42,0,0,1-2.05,36.46q-1.47,9-3.82,17.87a115.68,115.68,0,0,1-5.28,16,43,43,0,0,1-8.29,13.08c-.53.55-1.36,1.42-2,1.42s-1.34-.73-1.78-1.32c-1.48-2-2-4.71-2.57-7.08a73.73,73.73,0,0,1-1.3-17.42,169.32,169.32,0,0,1,11-57.6,2.5,2.5,0,0,0-4.82-1.33Z" transform="translate(0 0)"/><path class="cls-1" d="M45.24,307.18c.09,3.22,5.09,3.22,5,0a77.7,77.7,0,0,1,.16-7.78c1.45-20.45,11.24-39.87,25.38-54.57,15.29-15.87,35.64-25.72,57.12-30,22.7-4.52,46.21-2.73,68.42,3.41,23,6.37,44.8,17.17,64.8,30.23,16,10.42,34,25.83,33.67,46.65,0,3.22,5,3.21,5,0a40.29,40.29,0,0,0-.65-7.75c-1.85-10.4-8-19.54-15.25-27-7.76-8-17-14.34-26.46-20.14-21.08-12.9-43.91-23.44-68.08-28.9-23.33-5.27-47.89-5.62-71.08.62-21.84,5.88-42,17.79-56.37,35.39-13.74,16.78-22.26,38-21.66,59.88Z" transform="translate(0 0)"/><rect class="cls-2" width="350" height="350"/></svg>