<svg id="Layer_1" data-name="Layer 1" xmlns="http://www.w3.org/2000/svg" viewBox="0 0 261.23 43.83"><defs><style>.cls-1{fill:none;}.cls-2{fill:#010101;}</style></defs><rect class="cls-1" width="261.23" height="43.83"/><path class="cls-2" d="M183.59,416.54v3.87a6.77,6.77,0,0,0-1.78-1.67,3.5,3.5,0,0,0-1.82-.47,3.57,3.57,0,0,0-2.73,1.15,4,4,0,0,0-1.09,2.89,4.13,4.13,0,0,0,1.05,2.91,3.56,3.56,0,0,0,2.7,1.13,3.7,3.7,0,0,0,1.85-.45,7,7,0,0,0,1.82-1.71V428a7.64,7.64,0,0,1-3.54.91,6.81,6.81,0,0,1-4.89-1.88,6.68,6.68,0,0,1,0-9.48,6.72,6.72,0,0,1,4.89-1.94A7.21,7.21,0,0,1,183.59,416.54Z" transform="translate(-166.88 -399.08)"/><path class="cls-2" d="M185.82,422.2a6.26,6.26,0,0,1,2-4.64,6.52,6.52,0,0,1,4.76-1.91,6.62,6.62,0,0,1,4.79,1.92,6.45,6.45,0,0,1,1.94,4.74,6.38,6.38,0,0,1-2,4.74,6.66,6.66,0,0,1-4.82,1.9,6.39,6.39,0,0,1-4.75-1.94A6.53,6.53,0,0,1,185.82,422.2Zm3,.05a4.26,4.26,0,0,0,1,3,3.56,3.56,0,0,0,2.73,1.11,3.52,3.52,0,0,0,2.73-1.1,4.73,4.73,0,0,0,0-5.87,3.56,3.56,0,0,0-2.73-1.11,3.52,3.52,0,0,0-2.7,1.11A4,4,0,0,0,188.79,422.25Z" transform="translate(-166.88 -399.08)"/><path class="cls-2" d="M202.33,416h2.91v1.16a6,6,0,0,1,1.44-1.19,3.41,3.41,0,0,1,1.59-.32,3.85,3.85,0,0,1,3.37,1.86,4.38,4.38,0,0,1,3.72-1.86q4.24,0,4.25,5.16v7.78h-2.92v-7a5.45,5.45,0,0,0-.44-2.56,1.61,1.61,0,0,0-1.49-.76,1.88,1.88,0,0,0-1.75.91,5.77,5.77,0,0,0-.55,2.91v6.5h-2.92v-7c0-2.24-.65-3.36-1.94-3.36a1.94,1.94,0,0,0-1.79.92,5.67,5.67,0,0,0-.57,2.9v6.5h-2.91Z" transform="translate(-166.88 -399.08)"/><path class="cls-2" d="M234.75,423h-9a3.77,3.77,0,0,0,1,2.47,3.06,3.06,0,0,0,2.28.9,3,3,0,0,0,1.8-.51,7.33,7.33,0,0,0,1.59-1.92l2.46,1.37a10.26,10.26,0,0,1-1.2,1.67,6.43,6.43,0,0,1-1.36,1.13,5.34,5.34,0,0,1-1.57.66,8,8,0,0,1-1.82.2,5.93,5.93,0,0,1-4.53-1.81,6.81,6.81,0,0,1-1.7-4.83,7,7,0,0,1,1.65-4.84,5.71,5.71,0,0,1,4.43-1.82,5.64,5.64,0,0,1,4.39,1.77,7,7,0,0,1,1.61,4.87Zm-3-2.38a2.8,2.8,0,0,0-2.94-2.33,3.32,3.32,0,0,0-1,.16,3,3,0,0,0-1.5,1.2,3.54,3.54,0,0,0-.41,1Z" transform="translate(-166.88 -399.08)"/><path class="cls-2" d="M238.39,427.14a1.8,1.8,0,0,1,3.59,0,1.73,1.73,0,0,1-.53,1.28,1.71,1.71,0,0,1-1.26.51,1.74,1.74,0,0,1-1.8-1.81Z" transform="translate(-166.88 -399.08)"/><path class="cls-2" d="M249.11,418.71v9.88H246.2v-9.88H245V416h1.24v-4.62h2.91V416h2.26v2.71Z" transform="translate(-166.88 -399.08)"/><path class="cls-2" d="M253.35,416h2.91v1.12a5.61,5.61,0,0,1,1.42-1.15,3.19,3.19,0,0,1,1.5-.32,4.72,4.72,0,0,1,2.41.75l-1.33,2.66a2.77,2.77,0,0,0-1.62-.59c-1.59,0-2.38,1.19-2.38,3.59v6.53h-2.91Z" transform="translate(-166.88 -399.08)"/><path class="cls-2" d="M266.57,416v7.22c0,2.09.82,3.13,2.47,3.13s2.47-1,2.47-3.13V416h2.91v7.29a8.08,8.08,0,0,1-.38,2.61,4.33,4.33,0,0,1-1.25,1.77,6.12,6.12,0,0,1-7.49,0A4.41,4.41,0,0,1,264,425.9a7.22,7.22,0,0,1-.36-2.61V416Z" transform="translate(-166.88 -399.08)"/><path class="cls-2" d="M289.56,423h-9a3.87,3.87,0,0,0,1,2.47,3.1,3.1,0,0,0,2.29.9,3,3,0,0,0,1.8-.51,7.75,7.75,0,0,0,1.59-1.92l2.46,1.37a9.71,9.71,0,0,1-1.21,1.67,6.15,6.15,0,0,1-1.35,1.13,5.57,5.57,0,0,1-1.57.66,8.05,8.05,0,0,1-1.82.2,5.93,5.93,0,0,1-4.53-1.81,6.77,6.77,0,0,1-1.71-4.83,7,7,0,0,1,1.66-4.84,6.32,6.32,0,0,1,8.82-.05,7,7,0,0,1,1.6,4.87Zm-3-2.38a2.78,2.78,0,0,0-2.93-2.33,3.22,3.22,0,0,0-1,.16,3.07,3.07,0,0,0-.85.47,2.86,2.86,0,0,0-.65.73,3.26,3.26,0,0,0-.41,1Z" transform="translate(-166.88 -399.08)"/><path class="cls-2" d="M303.82,406.75v13.32l4.1-4.07h3.91l-5.47,5.28,5.87,7.31h-3.78l-4.16-5.31-.47.46v4.85h-2.91V406.75Z" transform="translate(-166.88 -399.08)"/><path class="cls-2" d="M325.15,423h-9a3.87,3.87,0,0,0,1,2.47,3.1,3.1,0,0,0,2.29.9,3,3,0,0,0,1.8-.51,7.75,7.75,0,0,0,1.59-1.92l2.46,1.37a10.28,10.28,0,0,1-1.21,1.67,6,6,0,0,1-1.36,1.13,5.39,5.39,0,0,1-1.56.66,8.05,8.05,0,0,1-1.82.2,5.93,5.93,0,0,1-4.53-1.81,6.77,6.77,0,0,1-1.71-4.83,6.94,6.94,0,0,1,1.66-4.84,6.32,6.32,0,0,1,8.82-.05,7,7,0,0,1,1.6,4.87Zm-3-2.38a2.78,2.78,0,0,0-2.93-2.33,3.22,3.22,0,0,0-1,.16,3.07,3.07,0,0,0-.85.47,2.86,2.86,0,0,0-.65.73,3.26,3.26,0,0,0-.41,1Z" transform="translate(-166.88 -399.08)"/><path class="cls-2" d="M339.8,423h-9a3.87,3.87,0,0,0,1,2.47,3.1,3.1,0,0,0,2.29.9,3,3,0,0,0,1.8-.51,7.33,7.33,0,0,0,1.59-1.92l2.46,1.37a9.71,9.71,0,0,1-1.21,1.67,6.15,6.15,0,0,1-1.35,1.13,5.57,5.57,0,0,1-1.57.66,8.05,8.05,0,0,1-1.82.2,5.93,5.93,0,0,1-4.53-1.81,6.77,6.77,0,0,1-1.7-4.83,7,7,0,0,1,1.65-4.84,6.32,6.32,0,0,1,8.82-.05,7,7,0,0,1,1.6,4.87Zm-3-2.38a2.78,2.78,0,0,0-2.93-2.33,3.22,3.22,0,0,0-1,.16,2.88,2.88,0,0,0-.84.47,2.72,2.72,0,0,0-.66.73,3.26,3.26,0,0,0-.41,1Z" transform="translate(-166.88 -399.08)"/><path class="cls-2" d="M345.89,435.45H343V416h2.91v1.37a5.53,5.53,0,0,1,8.19.19,6.91,6.91,0,0,1,1.7,4.8,6.8,6.8,0,0,1-1.69,4.72,5.53,5.53,0,0,1-8.2.1Zm6.92-13.08a4.38,4.38,0,0,0-1-2.95,3.18,3.18,0,0,0-2.51-1.15,3.32,3.32,0,0,0-2.6,1.11,4.25,4.25,0,0,0-1,2.93,4.33,4.33,0,0,0,1,2.92,3.26,3.26,0,0,0,2.59,1.12,3.17,3.17,0,0,0,2.49-1.13A4.16,4.16,0,0,0,352.81,422.37Z" transform="translate(-166.88 -399.08)"/><path class="cls-2" d="M368.25,406.53l2.41,1.06-11.44,26.46L356.85,433Z" transform="translate(-166.88 -399.08)"/><path class="cls-2" d="M384.77,428.29c0,.6,0,1.12-.06,1.57s-.1.86-.16,1.2a5.46,5.46,0,0,1-1.22,2.45,5.89,5.89,0,0,1-4.69,2,6.26,6.26,0,0,1-4.16-1.36,5.58,5.58,0,0,1-1.94-3.86h2.93a3.22,3.22,0,0,0,.55,1.43,3.13,3.13,0,0,0,2.64,1.18q3.19,0,3.2-3.92v-1.76a5.45,5.45,0,0,1-4,1.77,5.38,5.38,0,0,1-4.22-1.86,6.91,6.91,0,0,1-1.65-4.72,7.22,7.22,0,0,1,1.54-4.68,5.35,5.35,0,0,1,4.37-2,5.09,5.09,0,0,1,4,1.77V416h2.91Zm-2.8-6a4.28,4.28,0,0,0-1-2.94,3.24,3.24,0,0,0-2.55-1.12,3.13,3.13,0,0,0-2.61,1.23,5,5,0,0,0,0,5.66,3.14,3.14,0,0,0,2.61,1.2,3.2,3.2,0,0,0,2.64-1.21A4.35,4.35,0,0,0,382,422.32Z" transform="translate(-166.88 -399.08)"/><path class="cls-2" d="M387.84,422.2a6.23,6.23,0,0,1,2-4.64,6.51,6.51,0,0,1,4.76-1.91,6.6,6.6,0,0,1,4.78,1.92,6.45,6.45,0,0,1,1.94,4.74,6.37,6.37,0,0,1-1.95,4.74,6.67,6.67,0,0,1-4.83,1.9,6.36,6.36,0,0,1-4.74-1.94A6.5,6.5,0,0,1,387.84,422.2Zm3,.05a4.21,4.21,0,0,0,1,3,3.56,3.56,0,0,0,2.73,1.11,3.51,3.51,0,0,0,2.72-1.1,4.7,4.7,0,0,0,0-5.87,3.88,3.88,0,0,0-5.43,0A4,4,0,0,0,390.82,422.25Z" transform="translate(-166.88 -399.08)"/><path class="cls-2" d="M403.92,410.76a1.8,1.8,0,0,1,.55-1.32,1.88,1.88,0,0,1,2.68,0,1.78,1.78,0,0,1,.56,1.33,1.86,1.86,0,0,1-.56,1.35,1.79,1.79,0,0,1-1.33.55,1.83,1.83,0,0,1-1.35-.55A1.87,1.87,0,0,1,403.92,410.76Zm3.35,5.24v12.59h-2.91V416Z" transform="translate(-166.88 -399.08)"/><path class="cls-2" d="M411,416h2.93v1.16a4.74,4.74,0,0,1,3.44-1.51,4.34,4.34,0,0,1,3.42,1.38,5.63,5.63,0,0,1,1.06,3.84v7.72h-2.92v-7a4.58,4.58,0,0,0-.52-2.58,2.08,2.08,0,0,0-1.83-.72,2.25,2.25,0,0,0-2.06,1,6.5,6.5,0,0,0-.59,3.29v6.08H411Z" transform="translate(-166.88 -399.08)"/></svg>