<svg id="Layer_1" data-name="Layer 1" xmlns="http://www.w3.org/2000/svg" viewBox="0 0 119.33 119.33"><defs><style>.cls-1{fill:#fff;}.cls-2{fill:none;}</style></defs><path class="cls-1" d="M-287.65,29.42h-8.3a19.76,19.76,0,0,0,7.68,9.21V44.2c-4.42-2-8.31-5.13-10.37-8.78-1.58,3.07-4.42,5.13-6.86,6.62A32.86,32.86,0,0,1-310,44.2V38.54a16.57,16.57,0,0,0,8.37-9.12h-8.93V23.85h22.93Zm6.33,18.77c3,0,5.62,1.92,5.62,4.89v4.34a4.83,4.83,0,0,1-5,4.67h-18.86a5.2,5.2,0,0,1-5.19-5V53.63c0-3.55,3.08-5.43,6.58-5.43Zm-15.33,5c-1.88,0-2,.77-2.07,1.4l0,1.44c0,1.4,1.3,1.44,2.6,1.44h12.77c1.1,0,2.06-.49,2.06-1.4V54.77c0-.91-.48-1.63-1.87-1.63Zm20.88-31.44V45.75h-6.1V37h-5.57V31.3h5.57V21.7Z" transform="translate(332.62 -7.04)"/><path class="cls-1" d="M-235.33,57.65h-35.14v-5.8h35.14Zm-3.74-33.17v5.38a51.7,51.7,0,0,1-1.82,14.27,30.21,30.21,0,0,1-1.78,4.75h-7c4.22-7.06,3.84-15.71,3.6-19h-21.08V24.45Z" transform="translate(332.62 -7.04)"/><path class="cls-1" d="M-289.37,73.75V90.07H-304v6.72h14.64v5.09h-20.79V84.42H-295v-5h-15.74V73.76Zm11.86,38h-6.29V71.3h6.29Z" transform="translate(332.62 -7.04)"/><path class="cls-1" d="M-235.19,89.16V93.8H-271V89.16Z" transform="translate(332.62 -7.04)"/><rect class="cls-2" width="119.33" height="119.33"/></svg>