<?xml version="1.0" encoding="utf-8"?>
<!-- Generator: Adobe Illustrator 24.3.0, SVG Export Plug-In . SVG Version: 6.00 Build 0)  -->
<svg version="1.1" id="Layer_1" xmlns="http://www.w3.org/2000/svg" xmlns:xlink="http://www.w3.org/1999/xlink" x="0px" y="0px"
	 viewBox="0 0 119.3 119.3" style="enable-background:new 0 0 119.3 119.3;" xml:space="preserve">
<style type="text/css">
	.st0{fill:#1D1D1B;}
	.st1{fill:none;}
</style>
<path class="st0" d="M45,22.4h-8.3c1.5,3.8,4.2,7,7.7,9.2v5.6c-4.4-2-8.3-5.1-10.4-8.8c-1.6,3.1-4.4,5.1-6.9,6.6
	c-1.5,0.8-3,1.6-4.5,2.2v-5.7c3.9-1.8,6.9-5.1,8.4-9.1H22v-5.6H45V22.4z M51.3,41.1c3,0,5.6,1.9,5.6,4.9v4.3c-0.1,2.7-2.3,4.8-5,4.7
	c0,0-0.1,0-0.1,0H33.1c-2.8,0-5.1-2.2-5.2-5v-3.5c0-3.5,3.1-5.4,6.6-5.4L51.3,41.1z M36,46.1c-1.9,0-2,0.8-2.1,1.4l-0.1,1.4
	c0,1.4,1.3,1.4,2.6,1.4h12.8c1.1,0,2.1-0.5,2.1-1.4v-1.2c0-0.9-0.5-1.6-1.9-1.6H36z M56.9,14.7v24h-6.1v-8.8h-5.6v-5.7h5.6v-9.6
	L56.9,14.7z"/>
<path class="st0" d="M97.3,50.6H62.1v-5.8h35.1V50.6z M93.6,17.4v5.4c0.1,4.8-0.6,9.6-1.8,14.3c-0.5,1.6-1.1,3.2-1.8,4.8h-7
	c4.2-7.1,3.8-15.7,3.6-19H65.5v-5.4L93.6,17.4z"/>
<path class="st0" d="M43.2,66.7V83H28.6v6.7h14.6v5.1H22.5V77.4h15.2v-5H21.9v-5.7L43.2,66.7z M55.1,104.7h-6.3V64.3h6.3V104.7z"/>
<path class="st0" d="M97.4,82.1v4.6H61.6v-4.6H97.4z"/>
<rect y="0" class="st1" width="119.3" height="119.3"/>
</svg>
