<svg id="Layer_1" data-name="Layer 1" xmlns="http://www.w3.org/2000/svg" viewBox="0 0 119.33 119.33"><defs><style>.cls-1{fill:#333;}.cls-2{fill:#fff;}</style></defs><rect class="cls-1" width="119.33" height="119.33"/><path class="cls-2" d="M45,22.38H36.7a19.81,19.81,0,0,0,7.68,9.21v5.57C39.93,35.16,36,32,34,28.38c-1.58,3.07-4.42,5.13-6.86,6.62a34.06,34.06,0,0,1-4.52,2.16V31.5A16.62,16.62,0,0,0,31,22.38H22V16.81H45Zm6.3,18.77c3,0,5.62,1.92,5.62,4.89v4.34A4.82,4.82,0,0,1,52,55H33.07a5.2,5.2,0,0,1-5.19-5V46.58c0-3.55,3.08-5.42,6.58-5.42ZM36,46.1c-1.88,0-2,.77-2.07,1.39v1.44c0,1.4,1.3,1.44,2.6,1.44H49.22c1.1,0,2.06-.48,2.06-1.39V47.73c0-.91-.48-1.63-1.87-1.63ZM56.85,14.66V38.71h-6.1V29.92H45.18V24.26h5.57v-9.6Z" transform="translate(0 0)"/><path class="cls-2" d="M97.29,50.61H62.15V44.8H97.29ZM93.55,17.44v5.38a51.68,51.68,0,0,1-1.82,14.26A29.64,29.64,0,0,1,90,41.83H83c4.22-7.06,3.84-15.7,3.6-19H65.47V17.4Z" transform="translate(0 0)"/><path class="cls-2" d="M43.25,66.71V83H28.61v6.72H43.25v5.09H22.46V77.38H37.63v-5H21.89V66.72Zm11.86,38H48.82V64.26h6.29Z" transform="translate(0 0)"/><path class="cls-2" d="M97.43,82.12v4.64H61.62V82.12Z" transform="translate(0 0)"/></svg>