<?xml version="1.0" encoding="utf-8"?>
<!-- Generator: Adobe Illustrator 24.3.0, SVG Export Plug-In . SVG Version: 6.00 Build 0)  -->
<svg version="1.1" id="Layer_1" xmlns="http://www.w3.org/2000/svg" xmlns:xlink="http://www.w3.org/1999/xlink" x="0px" y="0px"
	 viewBox="0 0 254 186" style="enable-background:new 0 0 254 186;" xml:space="preserve">
<style type="text/css">
	.st0{fill:#6699FF;}
	.st1{fill:none;}
</style>
<path class="st0" d="M126.4,141.9c24.6-9.4,48.4-20.7,71.2-33.9c6.4-3.7,12.7-7.5,19-11.5c3.1-2,3.4-6.8,0-8.6L155.7,54l-17.4-9.6
	c-1.6-0.9-3.5-0.9-5.1,0c-3.7,2.7-5.7,7.1-5.2,11.7c0.6,4.7,3.1,8.6,6.6,11.8c3.4,3.1,7,5.9,10.7,8.6c3.5,2.6,7.1,5.1,10.7,7.4
	c4.2,2.7,8.6,5.3,13,7.7l2.5-9.3h-51.4l-51.4-0.1H40c-2.5,0-5.2,2.3-5,5l1,12.6c0.1,2.7,2.3,4.9,5,5c31.6,2.1,63.3,3.2,95,3.2
	c9,0,17.9-0.1,26.9-0.2l-1.3-9.8c-14.1,4.8-27.4,11.7-39.6,20.3c-3.6,2.6-7.1,5.3-10.5,8.1c-1.3,1.3-1.8,3.1-1.3,4.9
	c2.1,5.5,6.7,9.9,12.6,11c2.6,0.4,5.5-0.7,6.1-3.5c0.6-2.4-0.7-5.7-3.5-6.1c-0.5-0.1-1-0.2-1.4-0.3c-0.2-0.1-0.5-0.1-0.7-0.2
	c-0.5-0.2-0.4-0.2,0.2,0.1c0,0-0.9-0.5-1-0.5s-0.4-0.2-0.6-0.4c-0.4-0.3-0.4-0.3,0.1,0.1c-0.4-0.3-0.8-0.6-1.1-1
	c-0.2-0.2-1-1-0.2-0.1c-0.3-0.4-0.6-0.8-0.8-1.2c-0.2-0.3-0.8-1.7-0.3-0.5l-1.3,4.9c0.9-0.8,1.8-1.5,2.7-2.2l1.4-1.1l0.7-0.5l0,0
	c1.7-1.3,3.5-2.6,5.3-3.8c3.8-2.6,7.6-5.1,11.6-7.3c4-2.3,8-4.3,12-6.1c1-0.4,2-0.9,3-1.3l0,0l0.8-0.3l1.8-0.7
	c2.2-0.9,4.3-1.7,6.5-2.4c2.7-0.7,4.2-3.5,3.5-6.1c-0.6-2.2-2.6-3.7-4.8-3.7c-31.7,0.6-63.4,0.1-95.1-1.4c-9-0.4-17.9-0.9-26.8-1.6
	l5,5l-1-12.6l-5,5l51.4,0.1h51.4h28.9c4.9,0,7-6.9,2.5-9.3c-6.9-3.7-13.6-7.9-20.1-12.4c-1.6-1.1-3.1-2.2-4.6-3.4l-0.7-0.6l-0.2-0.2
	l-0.2-0.2l-0.5-0.4l-2.3-1.8c-1.4-1.2-2.9-2.3-4.2-3.6c-0.6-0.6-1.2-1.2-1.7-1.8s0.3,0.5-0.2-0.3c-0.3-0.4-0.5-0.8-0.8-1.2
	c-0.1-0.2-0.2-0.5-0.4-0.7c-0.3-0.6,0.2,0.8,0.1,0.2c-0.1-0.4-0.2-0.8-0.3-1.1c0-0.2-0.1-0.7,0,0s0,0,0-0.2V54c0-0.2,0.1-0.8,0,0
	s0,0,0.1-0.2s0.1-0.3,0.1-0.5c0.2-1-0.4,0.5-0.1,0.1c0.1-0.1,0.2-0.3,0.2-0.4c0.3-0.8-0.2,0.3-0.2,0.2s1.6-1.4,0.2-0.3h-5l60.9,33.8
	l17.4,9.6v-8.6c-21.8,14-44.7,26.2-68.5,36.5l-4.7,2c-1.4,0.6,0.9-0.4-0.5,0.2l-1.3,0.5l-2.6,1.1c-3.4,1.4-6.9,2.8-10.3,4.1
	c-2.4,0.9-4.4,3.4-3.5,6.2c0.8,2.4,3.5,4.5,6.2,3.5L126.4,141.9z"/>
<rect y="0" class="st1" width="254" height="186"/>
</svg>
