<?xml version="1.0" encoding="utf-8"?>
<!-- Generator: Adobe Illustrator 24.3.0, SVG Export Plug-In . SVG Version: 6.00 Build 0)  -->
<svg version="1.1" id="Layer_1" xmlns="http://www.w3.org/2000/svg" xmlns:xlink="http://www.w3.org/1999/xlink" x="0px" y="0px"
	 viewBox="0 0 254 186" style="enable-background:new 0 0 254 186;" xml:space="preserve">
<style type="text/css">
	.st0{fill:#6699FF;}
	.st1{fill:none;}
</style>
<path class="st0" d="M127.7,44.2C103.1,53.6,79.3,65,56.4,78.1c-6.4,3.7-12.7,7.5-19,11.5c-3.1,2-3.4,6.8,0,8.6l60.9,33.8l17.4,9.6
	c1.6,0.9,3.5,0.9,5,0c3.7-2.7,5.7-7.1,5.2-11.7c-0.6-4.7-3.1-8.6-6.6-11.8c-3.4-3.1-7-5.9-10.7-8.6c-3.5-2.6-7.1-5.1-10.7-7.5
	c-4.2-2.7-8.6-5.3-13-7.7l-2.5,9.3l51.4,0l51.4,0.1H214c2.5,0,5.2-2.3,5-5l-1-12.6c-0.1-2.7-2.3-4.9-5-5c-31.6-2.1-63.3-3.2-95-3.2
	c-9,0-17.9,0.1-26.9,0.2l1.3,9.8c14.1-4.8,27.4-11.7,39.6-20.3c3.6-2.6,7.1-5.3,10.5-8.1c1.3-1.3,1.8-3.1,1.3-4.9
	c-2.1-5.5-6.7-10-12.6-11c-2.6-0.4-5.5,0.7-6.1,3.5c-0.5,2.4,0.7,5.7,3.5,6.1c0.5,0.1,1,0.2,1.4,0.3c0.2,0.1,0.5,0.1,0.7,0.2
	c0.5,0.2,0.5,0.2-0.2-0.1c0,0,0.9,0.5,1,0.5c0.2,0.1,0.4,0.2,0.6,0.4c0.4,0.3,0.4,0.3-0.1-0.1c0.4,0.3,0.8,0.6,1.1,1
	c0.2,0.2,1,1,0.2,0.1c0.3,0.4,0.6,0.8,0.8,1.2c0.1,0.3,0.8,1.7,0.3,0.5l1.3-4.9c-0.9,0.8-1.8,1.5-2.7,2.2l-1.4,1.1l-0.7,0.5
	c0.4-0.3,0.4-0.3,0,0c-1.7,1.3-3.5,2.6-5.3,3.8c-3.8,2.6-7.6,5.1-11.6,7.3s-8,4.3-12,6.1c-1,0.5-2,0.9-3,1.3c-0.5,0.2-0.5,0.2,0,0
	l-0.8,0.3l-1.8,0.7c-2.2,0.9-4.3,1.7-6.5,2.4c-2.4,0.7-3.9,3-3.6,5.5c0.3,2.5,2.4,4.3,4.9,4.3c31.7-0.6,63.4-0.1,95.1,1.4
	c9,0.4,17.9,0.9,26.9,1.6l-5-5l1,12.6l5-5l-51.4-0.1l-51.4,0H82.3c-4.9,0-7,6.9-2.5,9.3c6.9,3.7,13.6,7.9,20,12.4
	c1.6,1.1,3.1,2.2,4.6,3.4l0.7,0.5l0.2,0.2l0.2,0.2l0.5,0.4l2.3,1.9c1.4,1.2,2.9,2.3,4.2,3.6c0.6,0.6,1.2,1.2,1.7,1.8
	c0.5,0.6-0.3-0.5,0.2,0.3c0.3,0.4,0.5,0.8,0.8,1.2c0.1,0.2,0.2,0.5,0.4,0.7c0.3,0.6-0.2-0.8-0.1-0.2c0.1,0.4,0.2,0.8,0.3,1.1
	c0,0.1,0.1,0.7,0,0s0,0,0,0.2c0,0.4,0,0.8,0,1.2c0,0.1-0.1,0.8,0,0s0,0-0.1,0.2s-0.1,0.3-0.1,0.5c-0.2,1,0.4-0.5,0.1-0.1
	c-0.1,0.1-0.2,0.3-0.2,0.4c-0.3,0.8,0.2-0.3,0.2-0.2s-1.6,1.4-0.2,0.3h5L59.8,99.3l-17.4-9.6v8.6c21.8-13.9,44.7-26.2,68.5-36.5
	l4.7-2c1.4-0.6-0.9,0.4,0.5-0.2l1.3-0.5l2.6-1.1c3.4-1.4,6.9-2.8,10.3-4.1c2.4-0.9,4.4-3.4,3.5-6.2C133,45.4,130.2,43.3,127.7,44.2
	L127.7,44.2z"/>
<rect y="0" class="st1" width="254" height="186"/>
</svg>
