<svg id="Layer_1" data-name="Layer 1" xmlns="http://www.w3.org/2000/svg" viewBox="0 0 676.33 228.07"><defs><style>.cls-1,.cls-4{fill:#333;}.cls-2,.cls-3,.cls-5{fill:none;}.cls-2,.cls-3{stroke:#1d1d1b;}.cls-3{stroke-miterlimit:10;}.cls-4{stroke:#333;}</style></defs><path class="cls-1" d="M229.37,455.78v14.74H132.64V455.78Zm-5.18-91.1v15.18H155.47V392.8h68.72V408H155.47v12h68.72V435.2H138V364.68Z" transform="translate(47.21 -302.39)"/><path class="cls-1" d="M118.89,425.19H83.46v29.7h39.93v14.73H26.66V454.89H66.59v-29.7H31V410H46V379.08H31v-15.3h87.85v15.3h-14V410h14ZM63.21,410H87.73V379.08H63.21Z" transform="translate(47.21 -302.39)"/><path class="cls-2" d="M409.05,363.78v60.74H370.24v29.8h40v14.74H354.5V408.32h38.8V379.08H354.5v-15.3Zm34.3,105.84H427.83V363.22h15.52Z" transform="translate(47.21 -302.39)"/><path class="cls-2" d="M498.68,453.31V424.52H486A24.58,24.58,0,0,1,461.45,400V388.41A24.58,24.58,0,0,1,486,363.89h41.84a24.51,24.51,0,0,1,24.52,24.52V400a24.51,24.51,0,0,1-24.52,24.52H515.1v28.79h40.16v16.31H458.53V453.31Zm26.43-44.54c6.75,0,11-5.51,11-12.15v-4.83c0-6.75-4.28-12.15-11-12.15H488.67c-6.64,0-11,5.4-11,12.15v4.83c0,6.64,4.38,12.15,11,12.15Z" transform="translate(47.21 -302.39)"/><polygon class="cls-3" points="380.01 123.26 338.17 123.26 338.17 135.07 365.39 135.07 365.39 139.12 338.17 139.12 338.17 150.81 380.01 150.81 380.01 123.26"/><polygon class="cls-3" points="346.6 101.66 382.03 101.66 382.03 88.61 367.75 88.61 367.75 74.55 382.03 74.55 382.03 61.39 338.17 61.39 338.17 74.55 351.44 74.55 351.44 88.61 338.17 88.61 338.17 118.42 386.53 118.42 386.53 106.61 346.6 106.61 346.6 101.66"/><rect class="cls-3" x="338.17" y="155.09" width="41.84" height="12.15"/><rect class="cls-4" x="296.33" y="123.26" width="41.84" height="11.81"/><polygon class="cls-4" points="338.17 88.61 325.68 88.61 325.68 74.55 338.17 74.55 338.17 61.39 294.19 61.39 294.19 74.55 309.49 74.55 309.49 88.61 294.19 88.61 294.19 101.66 329.73 101.66 329.73 106.61 289.8 106.61 289.8 118.42 338.17 118.42 338.17 88.61"/><polygon class="cls-4" points="338.17 155.09 310.95 155.09 310.95 150.81 338.17 150.81 338.17 139.12 296.33 139.12 296.33 167.23 338.17 167.23 338.17 155.09"/><rect class="cls-5" width="676.33" height="228.07"/></svg>