<svg id="Layer_1" data-name="Layer 1" xmlns="http://www.w3.org/2000/svg" viewBox="0 0 254 186"><defs><style>.cls-1{fill:#1d1d1b;}.cls-2{fill:none;}</style></defs><path class="cls-1" d="M309.45,372.16a504,504,0,0,0-71.24,33.92q-9.61,5.54-19,11.52c-3.07,2-3.4,6.75,0,8.64L280.15,460l17.4,9.64a4.94,4.94,0,0,0,5.05,0,12.48,12.48,0,0,0,5.16-11.7c-.57-4.73-3.14-8.61-6.6-11.81a135,135,0,0,0-10.74-8.62q-5.24-3.9-10.73-7.45-6.36-4.1-13-7.68l-2.52,9.32,51.36.05,51.36.06,28.92,0c2.54,0,5.22-2.3,5-5l-1-12.61a5.16,5.16,0,0,0-5-5q-47.44-3.21-95-3.24-13.44,0-26.89.25l1.33,9.82a154.42,154.42,0,0,0,39.56-20.29q5.38-3.86,10.46-8.14a4.83,4.83,0,0,0,1.28-4.86c-2.11-5.48-6.68-9.95-12.62-11-2.56-.44-5.51.69-6.15,3.5-.55,2.43.74,5.67,3.49,6.15a11.23,11.23,0,0,1,1.42.32c.23.06.46.14.69.22.52.2.45.18-.19-.08,0,0,.92.49,1,.52.21.12.42.25.62.39.44.32.4.28-.14-.13a4.55,4.55,0,0,1,1.07,1c.2.21,1,1,.16.1a7,7,0,0,1,.79,1.21c.15.26.76,1.73.26.46l1.29-4.87c-.89.75-1.78,1.49-2.69,2.22l-1.36,1.08-.69.54c.44-.34.44-.33,0,0-1.74,1.31-3.49,2.6-5.27,3.84q-5.64,3.93-11.6,7.31t-12,6.13c-1,.45-2,.88-3,1.31-.54.23-.54.23,0,0l-.81.33L278,404c-2.16.86-4.34,1.66-6.54,2.42a5,5,0,0,0-3.58,5.48,5,5,0,0,0,4.91,4.34q47.55-.89,95.07,1.43,13.44.64,26.85,1.56l-5-5,1,12.61,5-5-51.36-.06-51.36-.05-28.92,0c-4.85,0-7,6.93-2.52,9.32a190.61,190.61,0,0,1,20.05,12.43q2.34,1.67,4.62,3.39l.73.55.22.17.22.17.54.43,2.33,1.85c1.44,1.17,2.88,2.34,4.21,3.62.6.57,1.16,1.17,1.7,1.79s-.3-.5.22.28c.26.4.52.79.75,1.21.13.24.24.49.37.72.34.62-.22-.75-.08-.16.09.38.22.76.32,1.14,0,.15.1.72,0,0s0,0,0,.18c0,.39,0,.79,0,1.18,0,.15-.06.75,0,0s0,0-.06.16-.1.32-.14.47c-.21.95.37-.54.08-.13a3.55,3.55,0,0,0-.23.43c-.33.75.18-.3.23-.22s-1.57,1.36-.18.33h5.05l-60.91-33.75-17.4-9.64v8.64a495,495,0,0,1,68.47-36.52l4.68-2c1.4-.6-.9.37.51-.22l1.28-.53,2.56-1.06q5.13-2.11,10.31-4.09c2.44-.94,4.39-3.41,3.5-6.16-.77-2.37-3.54-4.49-6.15-3.49Z" transform="translate(-181.77 -327.94)"/><rect class="cls-2" width="254" height="186"/></svg>