<svg id="Layer_1" data-name="Layer 1" xmlns="http://www.w3.org/2000/svg" viewBox="0 0 350 350"><defs><style>.cls-1{fill:#1d1d1b;}.cls-2{fill:none;}</style></defs><path class="cls-1" d="M182.19,255.82a233,233,0,0,0-15.14,50.9,236,236,0,0,0-3.14,26.77c-.51,8.81-.61,17.7,1,26.42,1.29,7,3.77,16.14,10.57,19.87,7.64,4.19,15.77-1.31,20.17-7.55,4.22-6,5.86-13.45,6.87-20.58,1.28-9,2.15-18.14,2.94-27.22q2.47-28.31,2.59-56.74c0-2.32,0-4.63,0-6.95,0-1.47-1.62-3-3.17-2.41-14.36,5.78-19.07,22.06-21.49,36a192.78,192.78,0,0,0-1.23,58.29c1.27,9.58,3.12,19.59,9.1,27.48a2.57,2.57,0,0,0,3.93.51c7.6-6,10.36-15.86,12.29-24.9a308.59,308.59,0,0,0,5.38-35.14,300.21,300.21,0,0,0,1.28-35.35c-.1-4.62-.09-9.49-2.21-13.72a9.55,9.55,0,0,0-11.55-4.9c-4.69,1.45-8.72,5.2-11.88,8.83a48.52,48.52,0,0,0-7.68,12.06,62.43,62.43,0,0,0-4.9,30,94.62,94.62,0,0,0,2.91,17q1.11,4.2,2.51,8.33a40.56,40.56,0,0,0,2.9,7.5c3,5.07,9.7,3.82,12.38-.85,1.34-2.35,1.67-5.05,2.06-7.68q.66-4.47,1.24-8.94a475.29,475.29,0,0,0,3.86-71.64q-.1-4.43-.28-8.85c-.08-1.93-2.84-3.6-4.27-1.77a108.86,108.86,0,0,0-20.31,87.85,100,100,0,0,0,4.18,14.72c1.6,4.34,3.69,11.13,9.23,11.59,3,.25,5.1-1.85,6.63-4.14a42.12,42.12,0,0,0,3.9-7.62,74.88,74.88,0,0,0,4.23-16.48A233.73,233.73,0,0,0,210,298c0-5,.4-10.93-2.2-15.43a8.57,8.57,0,0,0-6-4.27,12.08,12.08,0,0,0-8.37,2.19c-9,5.82-14.57,16-18.12,25.83a89.11,89.11,0,0,0-5.56,29.42c0,9.34,1.85,19.17,7.41,26.88a34.31,34.31,0,0,0,4.73,5.34,2.51,2.51,0,0,0,3.53,0c7.31-8.84,10.66-19.91,13.42-30.85a275.13,275.13,0,0,0,6.62-36.59q1.18-10.5,1.55-21.09a2.53,2.53,0,0,0-4.27-1.77C185.14,295,180,320.89,181.37,344.84q.27,4.57.84,9.11a52.31,52.31,0,0,0,1.5,8.91c.85,2.77,2.57,5.6,5.61,6.26,3.76.81,6.62-1.95,8.65-4.72,4-5.51,6.37-12.13,7.95-18.72,1.72-7.17,2.78-14.52,3.8-21.82,2.45-17.54,3.89-35.2,5.3-52.85.17-2.11-2.2-2.82-3.76-2.16-5.7,2.42-10.12,6.95-13.62,11.94a76.74,76.74,0,0,0-8.58,16.71,90.14,90.14,0,0,0-5.66,38.38,81,81,0,0,0,3.45,19.05c.92,2.85,2.51,5.73,5.6,6.59,2.81.79,5.59-.57,7.41-2.69a22.24,22.24,0,0,0,4-8q1.68-5.17,3.1-10.44c1.87-6.93,3.38-14,4.55-21a220.78,220.78,0,0,0,2.62-24.19c.39-7.5.28-15.24-3.29-22.05a2.56,2.56,0,0,0-3.42-.9,57.41,57.41,0,0,0-25.65,21.9A56.3,56.3,0,0,0,173.23,329,58.16,58.16,0,0,0,179,349.87a2.57,2.57,0,0,0,3.42.9c7.1-3.15,9.27-11.63,11-18.48a236.7,236.7,0,0,0,5.2-28.47q1-8,1.4-16.14c.14-2.67-3.35-3.13-4.66-1.26a131.28,131.28,0,0,0-23.68,70.34,2.54,2.54,0,0,0,1.83,2.41c3.95,1.37,7.37-1.43,9.48-4.51a27.73,27.73,0,0,0,2.55-5.22q1.26-3,2.39-6.1a158,158,0,0,0,7-25.71,2.5,2.5,0,0,0-4.82-1.33c-3.82,11.51-7.58,23.2-8,35.43-.08,2.61,3.35,3.21,4.66,1.26A110.5,110.5,0,0,0,205,301.1a105.91,105.91,0,0,0,.19-15.63,2.53,2.53,0,0,0-4.27-1.77A78.24,78.24,0,0,0,176.56,336a75,75,0,0,0,.92,16.67,2.45,2.45,0,0,0,1.74,1.75l4.92,1.25a2.61,2.61,0,0,0,2.82-1.15,91.71,91.71,0,0,0,17.88-46.05,88.51,88.51,0,0,0,.28-14.1,2.53,2.53,0,0,0-3.76-2.16,72.58,72.58,0,0,0-33.11,41.36,70,70,0,0,0-2.88,15,2.51,2.51,0,0,0,3.16,2.41l3.77-1.37a2.5,2.5,0,1,0-1.33-4.82l-3.77,1.37,3.17,2.41a67.43,67.43,0,0,1,22-43.8,63.48,63.48,0,0,1,11.52-8.28l-3.76-2.16A86.64,86.64,0,0,1,182.64,352l2.83-1.14-4.92-1.26,1.75,1.75c-3-18.11,1.66-37.16,11.95-52.27a68.94,68.94,0,0,1,10.18-11.79l-4.27-1.77a105.35,105.35,0,0,1-10.09,51.8,107.17,107.17,0,0,1-7.56,13.2l4.66,1.26c.37-11.76,4.11-23,7.78-34.1l-4.82-1.33A157.22,157.22,0,0,1,184,339.36a98.88,98.88,0,0,1-4.1,10.53,11.88,11.88,0,0,1-2.53,3.7,2.29,2.29,0,0,1-2.58.76l1.84,2.41a126.16,126.16,0,0,1,14.62-54.2,128.57,128.57,0,0,1,8.38-13.62L195,287.68a230.29,230.29,0,0,1-2.95,26.72q-1.16,6.68-2.68,13.27a85.11,85.11,0,0,1-3.11,11.22c-1.24,3.2-3.13,6.13-6.35,7.56l3.42.9a52,52,0,0,1,26.6-70.79l-3.42-.9c2.74,5.24,2.91,11.32,2.71,17.1-.23,6.5-.81,13-1.68,19.44a210.37,210.37,0,0,1-9,38.68c-.65,1.94-1.62,4.24-3.32,5.44a1.51,1.51,0,0,1-1.81.27,4,4,0,0,1-1.44-2,44,44,0,0,1-2.18-8.25,79.77,79.77,0,0,1-1.28-8.57,86.6,86.6,0,0,1,3.9-34.95,77.11,77.11,0,0,1,8.29-17.71c3.25-5.07,7.41-9.56,13-11.95L210,271c-1.18,14.74-2.36,29.49-4.16,44.17-.88,7.18-1.92,14.34-3.19,21.46-1.09,6.15-2.38,12.42-4.95,18.15a31.14,31.14,0,0,1-4.66,7.83c-.55.62-1.48,1.69-2.41,1.68s-1.31-.83-1.7-1.65c-1.08-2.25-1.24-5-1.58-7.48q-.57-4.2-.87-8.42A108.22,108.22,0,0,1,188.94,313c2.94-12,8.54-23.18,17.35-31.89L202,279.38A268.28,268.28,0,0,1,198.4,315c-2,11.41-4.36,23-8.24,33.95a50.55,50.55,0,0,1-8.26,15.39h3.53c-13.15-12-12.08-32.39-7.94-48.18,2.39-9.1,5.85-18.39,12.09-25.6a35.68,35.68,0,0,1,5.24-5c1.62-1.24,3.79-2.66,5.94-2.44,3.71.4,4,5.83,4.08,8.7a229.59,229.59,0,0,1-1.52,35.75c-1.25,10.37-2.75,21.62-8.68,30.51-.92,1.4-1.76,2.27-3.06,1-1.46-1.38-2.17-3.47-2.9-5.3a98.55,98.55,0,0,1-4.27-13.68,104.19,104.19,0,0,1,14.43-80.54c1.24-1.87,2.55-3.7,3.93-5.47l-4.27-1.77a477.17,477.17,0,0,1-2,66.56q-.83,8.24-1.94,16.43c-.37,2.66-.7,5.34-1.18,8-.31,1.73-.71,3.93-2.32,4.94s-2.29.2-2.92-1.22a70.43,70.43,0,0,1-2.6-7.35,108.18,108.18,0,0,1-3.84-15.49c-2.94-17.69.5-37.89,15-49.85,2.57-2.12,6.94-4.88,9.73-2.07,2.23,2.25,2.48,6.35,2.59,9.5a301.85,301.85,0,0,1-.69,32.95A296.7,296.7,0,0,1,204.13,347c-1.62,8.66-3,18.33-8.26,25.7a21,21,0,0,1-4.22,4.35l3.93.51c-4.89-6.46-6.81-14.38-8-22.25A182.53,182.53,0,0,1,185.5,328a186.84,186.84,0,0,1,1.94-27.56c1.1-7.44,2.45-15,5.31-22,2.6-6.34,6.88-12.63,13.46-15.28l-3.16-2.41q.13,26.92-1.8,53.8-1,13.48-2.48,26.93c-.81,7.24-1.49,14.66-4,21.55a25.72,25.72,0,0,1-4.66,8.21c-2.16,2.45-5.16,4.88-8.57,5-6.93.27-9.66-8.55-11-13.87-2.05-8.06-2.18-16.45-1.85-24.72a221.08,221.08,0,0,1,2.4-25A230.17,230.17,0,0,1,184.21,264c.74-1.89,1.5-3.78,2.29-5.65a2.58,2.58,0,0,0-.89-3.42,2.52,2.52,0,0,0-3.42.9Z" transform="translate(-86.36 -209.48)"/><path class="cls-1" d="M314.75,270.36A174.23,174.23,0,0,0,305.23,308a177.44,177.44,0,0,0-1.64,19.67,87.49,87.49,0,0,0,1.17,19.06c.92,4.74,2.69,12.35,8.45,13.29,3.2.52,5.58-1.6,7.56-3.83a45.44,45.44,0,0,0,5.09-7.07,78.23,78.23,0,0,0,6.69-16,177.92,177.92,0,0,0,4.76-18.74,184.84,184.84,0,0,0,3.37-44.1c-.06-1.44-1.58-3.08-3.16-2.41-9.54,4-15.23,12.67-19.09,21.9A143.61,143.61,0,0,0,309.35,324,163.68,163.68,0,0,0,308,360.9c.35,4.44,1.37,9.59,5.24,12.35,5,3.54,10.48-.61,13.46-4.68,3.25-4.44,4.74-10,6.21-15.2q2.58-9.12,4.44-18.41A248.08,248.08,0,0,0,342,297.22c.13-3,.24-6,.22-9s-.46-5.87-2.37-8.21c-3-3.71-8.36-3.91-12.63-2.7-4.93,1.39-9.28,4.77-12.84,8.35a58.72,58.72,0,0,0-9.5,13,75.28,75.28,0,0,0-8.3,48.42c.78,4.86,1.81,10.38,4.76,14.45a11.76,11.76,0,0,0,5.84,4.44,2.51,2.51,0,0,0,2.44-.65c4.47-4.3,7.06-10,9-15.83,2.15-6.48,3.86-13.13,5.48-19.76a363.74,363.74,0,0,0,7.71-42.44,78.28,78.28,0,0,0,1-10,7.71,7.71,0,0,0-.9-3.77c-.8-1.35-2.56-2.58-4.21-2.12-1.37.37-2.81,1.85-3.83,2.8A25.62,25.62,0,0,0,321,277.3a40.68,40.68,0,0,0-4.83,7.86,115,115,0,0,0-6.49,18.3,166,166,0,0,0-4.43,20.81A170.34,170.34,0,0,0,303.37,348c0,6.8.45,14.2,4.68,19.84.61.8,1.75,1.59,2.83,1.14,8.61-3.56,11.6-13.25,14.31-21.37a170.76,170.76,0,0,0,7.1-30.34c.73-5.18,1.25-10.38,1.52-15.6a108.33,108.33,0,0,0,.06-15.18c-.22-2.4-.88-4.8-2.79-6.41a8.8,8.8,0,0,0-6-2c-4.76.21-8.37,3.67-11.32,7.07-11.47,13.17-15.82,30.79-16.2,47.92a121.17,121.17,0,0,0,.43,13.06c.35,4,.73,8.11,2.51,11.79,1.87,3.87,5.71,6.43,10.09,5.78s8-4.36,10.24-8c5.28-8.59,7.43-18.86,9.55-28.58q3.48-16,5.61-32.22.53-4,1-8a2.48,2.48,0,0,0-1.24-2.16c-6-4-12.71,1.68-16.68,5.89a68.59,68.59,0,0,0-10.88,15.55,110.25,110.25,0,0,0-11,36.85c-.75,6.25-.74,12.89,1.44,18.88,2,5.54,7,13.41,13.85,9.52a15.44,15.44,0,0,0,5.66-6.57c1.65-3.22,3.11-6.55,4.53-9.88a200.35,200.35,0,0,0,15.89-67.74,2.53,2.53,0,0,0-3.17-2.41c-6.18,1.15-9.87,6.94-12.78,12a117.89,117.89,0,0,0-15.66,57.88,82.52,82.52,0,0,0,.39,9.82c.36,3.24,1.78,6.22,5.18,7.14,5.63,1.53,11.18-2.69,14.23-7s4.66-9.92,5.84-15.16q2.47-10.93,4.34-22a429,429,0,0,0,5.48-50.06,2.53,2.53,0,0,0-3.77-2.16c-21.38,14.81-35.23,40.1-35.43,66.22-.06,7.94,1.35,16.14,5.74,22.91a2.63,2.63,0,0,0,2.82,1.15c7.2-1.15,9.18-9.86,10.73-15.72q3.3-12.53,5.63-25.3,1.32-7.28,2.31-14.59c.2-1.48-.6-3.29-2.41-3.17a24.46,24.46,0,0,0-12.56,4.38,2.57,2.57,0,0,0-.9,3.42,2.52,2.52,0,0,0,3.42.89,19.66,19.66,0,0,1,10-3.69l-2.41-3.16q-1.65,12.12-4.19,24.1-1.27,6-2.79,12a93,93,0,0,1-2.91,10.39c-1,2.6-2.49,5.14-5.29,5.59l2.83,1.14c-3.62-5.57-4.92-12.13-5.05-18.69a70.68,70.68,0,0,1,2-18,78.41,78.41,0,0,1,16.09-32,75.6,75.6,0,0,1,14.82-13.59l-3.76-2.16c-.69,13.73-2,27.44-4.07,41q-1.56,10.36-3.64,20.64c-1.14,5.66-2.15,11.47-4.14,16.91-1.48,4.08-3.87,8.43-8,10.27-1.45.65-4.12,1.38-4.91-.57a10.23,10.23,0,0,1-.44-3.16c-.1-1.6-.17-3.19-.2-4.79a112.81,112.81,0,0,1,5.23-36.3,110.77,110.77,0,0,1,8-19.07,58.81,58.81,0,0,1,4.95-8.15c1.69-2.2,3.74-4,6.54-4.58l-3.16-2.41a195.22,195.22,0,0,1-6.14,38.58,181.49,181.49,0,0,1-13.6,36.52c-.94,1.82-2.36,4.38-4.44,5s-3.65-2.24-4.55-3.83c-2.74-4.85-3.28-10.56-3-16a89.49,89.49,0,0,1,2.8-17,106.73,106.73,0,0,1,5.31-16.37,69.88,69.88,0,0,1,9.52-16.39,44.1,44.1,0,0,1,6.73-7.06c1.89-1.49,4.75-3.21,7-1.68l-1.24-2.15q-1.65,14.73-4.44,29.31c-1.78,9.27-3.57,18.74-6.7,27.65-1.38,3.91-3.06,8.19-5.77,11.38-1.92,2.26-5.14,4.9-8.09,3-2.34-1.54-3.13-5.21-3.54-7.94a94,94,0,0,1-.84-11.27c-.43-15.23,2-31.15,10.23-44.22a46.58,46.58,0,0,1,7.21-8.92c1.84-1.73,5.82-4.3,8.08-1.72,1.16,1.33.89,3.79.92,5.4.05,2.35.05,4.69,0,7q-.15,7.15-.9,14.28a166.54,166.54,0,0,1-5.32,27.64q-1.92,6.88-4.43,13.6c-1.23,3.27-2.66,6.71-5,9.32a10.77,10.77,0,0,1-3.75,2.81l2.82,1.15c-3.47-4.62-4-10.43-4-16a159.82,159.82,0,0,1,1.19-20.16,153.36,153.36,0,0,1,9.56-38.44c2.24-5.6,5.37-11.29,10.47-14.76l-1.93.25c.81.17-.27-.28-.18-.29s.12.39.11.17c0,.48.17.68.18,1.19a38.25,38.25,0,0,1-.38,4.27c-.34,3.18-.71,6.36-1.13,9.54q-1.26,9.42-3,18.77a324.41,324.41,0,0,1-9,36.75c-1.73,5.53-3.94,11.07-8.19,15.17l2.43-.65c-3.67-1.23-5-5.92-5.84-9.25a67.44,67.44,0,0,1-2.05-14.62,71.25,71.25,0,0,1,5.31-29.34c3.56-8.64,9.05-17.45,16.86-22.85,3-2.07,6.92-4,10.5-3.31a4.21,4.21,0,0,1,3.41,2.6c.91,2.21.52,5,.47,7.35a237.32,237.32,0,0,1-3.19,34.38,199.18,199.18,0,0,1-7.9,32.76,28.24,28.24,0,0,1-3,6.23c-1.11,1.71-2.7,3.71-4.71,4.35a2.54,2.54,0,0,1-1.92-.08,4,4,0,0,1-1.31-1.18,12.29,12.29,0,0,1-1.85-5,57.31,57.31,0,0,1-.58-7.15c-.13-2.82-.19-5.63-.18-8.45a163.79,163.79,0,0,1,1-16.86,158.18,158.18,0,0,1,7.22-32.74c2.71-8.12,6.32-16.71,13.14-22.25a21.12,21.12,0,0,1,5-3l-3.17-2.41a179.42,179.42,0,0,1-2.05,36.46q-1.47,9-3.82,17.87a115.63,115.63,0,0,1-5.28,16,43,43,0,0,1-8.29,13.08c-.53.55-1.36,1.42-2,1.42s-1.34-.73-1.78-1.32c-1.48-2-2-4.71-2.57-7.08a73.69,73.69,0,0,1-1.3-17.42,169.39,169.39,0,0,1,11-57.6,2.5,2.5,0,1,0-4.82-1.33Z" transform="translate(-86.36 -209.48)"/><path class="cls-1" d="M131.6,419.18c-.6,21.87,7.92,43.1,21.66,59.88,14.4,17.6,34.53,29.51,56.37,35.39,23.19,6.24,47.75,5.89,71.08.62,24.17-5.46,47-16,68.08-28.9,9.46-5.8,18.7-12.16,26.46-20.14,7.24-7.46,13.4-16.6,15.25-27a40.29,40.29,0,0,0,.65-7.75c0-3.21-5-3.22-5,0,.29,20.82-17.71,36.23-33.67,46.65-20,13.06-41.76,23.86-64.8,30.23-22.21,6.14-45.72,7.93-68.42,3.41-21.48-4.28-41.83-14.13-57.12-30C148,466.87,138.21,447.45,136.76,427a77.7,77.7,0,0,1-.16-7.78c.09-3.22-4.91-3.22-5,0Z" transform="translate(-86.36 -209.48)"/><rect class="cls-2" width="350" height="350"/></svg>